HIERARCHY
ROOT Hips
{
  OFFSET 53.4451 95.9693 9.66785
  CHANNELS 6 Xposition Yposition Zposition Zrotation Xrotation Yrotation
  JOINT spine
  {
    OFFSET 0 8.13249 0.467659
    CHANNELS 3 Zrotation Xrotation Yrotation
    JOINT spine1
    {
      OFFSET 0 10.3498 0
      CHANNELS 3 Zrotation Xrotation Yrotation
      JOINT spine2
      {
        OFFSET 0 9.91699 0
        CHANNELS 3 Zrotation Xrotation Yrotation
        JOINT Neck
        {
          OFFSET 0 25.461 1.2139
          CHANNELS 3 Zrotation Xrotation Yrotation
          JOINT Head
          {
            OFFSET 0 7.69245 0
            CHANNELS 3 Zrotation Xrotation Yrotation
            End Site
            {
              OFFSET 0 18.62 -6.14063
            }
          }
        }
        JOINT RightShoulder
        {
          OFFSET -4.17575 10.7096 -0.581445
          CHANNELS 3 Zrotation Xrotation Yrotation
          JOINT RightArm
          {
            OFFSET 0 14.0466 0
            CHANNELS 3 Zrotation Xrotation Yrotation
            JOINT RightArmRoll
            {
              OFFSET 0 7.09099 0
              CHANNELS 3 Zrotation Xrotation Yrotation
              JOINT RightForeArm
              {
                OFFSET 0 20.6535 0
                CHANNELS 3 Zrotation Xrotation Yrotation
                JOINT RightForeArmRoll
                {
                  OFFSET 0 7.95718 0
                  CHANNELS 3 Zrotation Xrotation Yrotation
                  JOINT RightHand
                  {
                    OFFSET 0 15.9683 0
                    CHANNELS 3 Zrotation Xrotation Yrotation
                    End Site
                    {
                      OFFSET 0 0 0
                    }
                  }
                }
              }
            }
          }
        }
        JOINT LeftShoulder
        {
          OFFSET 4.17575 10.7096 -0.581445
          CHANNELS 3 Zrotation Xrotation Yrotation
          JOINT LeftArm
          {
            OFFSET 0 14.0466 0
            CHANNELS 3 Zrotation Xrotation Yrotation
            JOINT LeftArmRoll
            {
              OFFSET 0 7.09099 0
              CHANNELS 3 Zrotation Xrotation Yrotation
              JOINT LeftForeArm
              {
                OFFSET 0 20.6535 0
                CHANNELS 3 Zrotation Xrotation Yrotation
                JOINT LeftForeArmRoll
                {
                  OFFSET 0 7.95718 0
                  CHANNELS 3 Zrotation Xrotation Yrotation
                  JOINT LeftHand
                  {
                    OFFSET 0 15.9683 0
                    CHANNELS 3 Zrotation Xrotation Yrotation
                    End Site
                    {
                      OFFSET 0 0 0
                    }
                  }
                }
              }
            }
          }
        }
      }
    }
  }
  JOINT RightUpLeg
  {
    OFFSET -7.20834 -1.32182 -1.10884
    CHANNELS 3 Zrotation Xrotation Yrotation
    JOINT RightUpLegRoll
    {
      OFFSET 0 18.7238 0
      CHANNELS 3 Zrotation Xrotation Yrotation
      JOINT RightLeg
      {
        OFFSET 0 -23.1866 0
        CHANNELS 3 Zrotation Xrotation Yrotation
        JOINT RightLegRoll
        {
          OFFSET 0 23.2624 0
          CHANNELS 3 Zrotation Xrotation Yrotation
          JOINT RightFoot
          {
            OFFSET 0 19.3621 0
            CHANNELS 3 Zrotation Xrotation Yrotation
            JOINT RightToeBase
            {
              OFFSET 0 16.1857 0
              CHANNELS 3 Zrotation Xrotation Yrotation
              End Site
              {
                OFFSET 0.00686052 7.83863 -0.903522
              }
            }
          }
        }
      }
    }
  }
  JOINT LeftUpLeg
  {
    OFFSET 7.20834 -1.32182 -1.10884
    CHANNELS 3 Zrotation Xrotation Yrotation
    JOINT LeftUpLegRoll
    {
      OFFSET 0 18.7239 0
      CHANNELS 3 Zrotation Xrotation Yrotation
      JOINT LeftLeg
      {
        OFFSET 0 23.1865 0
        CHANNELS 3 Zrotation Xrotation Yrotation
        JOINT LeftLegRoll
        {
          OFFSET 0 23.4775 0
          CHANNELS 3 Zrotation Xrotation Yrotation
          JOINT LeftFoot
          {
            OFFSET 0 19.147 0
            CHANNELS 3 Zrotation Xrotation Yrotation
            JOINT LeftToeBase
            {
              OFFSET 0 16.1857 0
              CHANNELS 3 Zrotation Xrotation Yrotation
              End Site
              {
                OFFSET -0.0307459 7.83862 -0.903522
              }
            }
          }
        }
      }
    }
  }
}
MOTION
Frames: 11
Frame Time: 0.00208333
53.5916 95.9105 8.54154 -0.20999 -3.02955 0.34255 0.489576 -1.37414 0.106417 0.980077 1.25503 0.160942 0.979242 2.89996 0.144595 -6.32764 11.7559 -3.61093 3.71111 -5.4863 -4.69025 60.2188 -9.02398 -5.62904 110.106 15.8411 15.1046 9.98579e-007 -1.95488e-007 -4.56648e-006 10.5587 9.28383 -1.74973 8.40228e-006 7.43062e-007 -3 8.02894 -4.95145 0.69768 -64.1583 -6.76449 4.41931 -106.83 14.2483 -9.80874 2.33172e-005 2.43301e-006 1.85192e-006 -8.82129 3.28597 1.14543 1.27099e-005 -4.69947e-007 3 -8.02907 -4.95147 -0.697689 171.545 3.43539 4.19965 180 7.01577e-015 179.062 179.056 13.3427 179.492 1.58948e-006 3.62527e-006 0.109646 -18.1664 69.5215 20.791 8.13663 25.2348 -3.48494 -172.412 2.26991 -2.36143 4.5067e-006 -1.99009e-005 -0.924076 -1.48268 -13.6445 0.443364 3.15628e-006 -4.48877e-006 -0.128754 19.0297 71.2175 -22.4286 -8.13666 25.2351 3.48443 
53.5853 95.9084 8.541 -0.20739 -3.05867 0.332175 0.48787 -1.36373 0.10839 0.976379 1.27588 0.164953 0.975938 2.92081 0.148654 -6.31263 11.7086 -3.59987 3.7034 -5.48439 -4.67416 60.228 -9.01008 -5.62073 110.092 15.7091 14.896 9.98579e-007 -1.95488e-007 -4.56648e-006 10.7076 9.66123 -1.80903 8.40228e-006 7.43062e-007 -3 8.02894 -4.95145 0.69768 -64.1462 -6.7581 4.41524 -106.851 14.148 -9.74052 2.33172e-005 2.43301e-006 1.85192e-006 -8.85167 3.58726 1.17124 1.27099e-005 -4.69947e-007 3 -8.02907 -4.95147 -0.697689 171.544 3.405 4.20047 180 7.01577e-015 179.062 179.058 13.3398 179.491 1.58948e-006 3.62527e-006 0.10924 -18.157 69.5196 20.7901 8.13663 25.2348 -3.48494 -172.413 2.22999 -2.36199 4.5067e-006 -1.99009e-005 -0.924054 -1.48193 -13.6319 0.444131 3.15628e-006 -4.48877e-006 -0.127896 19.0224 71.2158 -22.4258 -8.13666 25.2351 3.48443 
53.5878 95.9094 8.54096 -0.204714 -3.08921 0.320904 0.486072 -1.35307 0.110491 0.972488 1.29721 0.169207 0.972468 2.94214 0.152958 -6.29679 11.6625 -3.58859 3.69533 -5.48301 -4.65772 60.2385 -8.99567 -5.61213 110.075 15.5779 14.6897 9.98579e-007 -1.95488e-007 -4.56648e-006 10.8591 10.0297 -1.86712 8.40228e-006 7.43062e-007 -3 8.02894 -4.95145 0.69768 -64.1335 -6.75247 4.41157 -106.871 14.0502 -9.67532 2.33172e-005 2.43301e-006 1.85192e-006 -8.88189 3.88101 1.19652 1.27099e-005 -4.69947e-007 3 -8.02907 -4.95147 -0.697689 171.545 3.37383 4.20059 180 7.01577e-015 179.062 179.061 13.3381 179.491 1.58948e-006 3.62527e-006 0.108878 -18.1478 69.5185 20.79 8.13663 25.2348 -3.48494 -172.415 2.18831 -2.3627 4.5067e-006 -1.99009e-005 -0.924022 -1.48123 -13.6195 0.444934 3.15628e-006 -4.48877e-006 -0.127017 19.0154 71.2147 -22.4235 -8.13666 25.2351 3.48443 
53.5772 95.9134 8.55281 -0.20199 -3.12074 0.309006 0.484211 -1.34225 0.112681 0.96846 1.31887 0.173633 0.968879 2.96381 0.157435 -6.28035 11.6171 -3.57715 3.68699 -5.482 -4.64104 60.25 -8.98091 -5.60334 110.055 15.447 14.4849 9.98579e-007 -1.95488e-007 -4.56648e-006 11.0126 10.3918 -1.92442 8.40228e-006 7.43062e-007 -3 8.02894 -4.95145 0.69768 -64.1204 -6.74737 4.40818 -106.892 13.9539 -9.61225 2.33172e-005 2.43301e-006 1.85192e-006 -8.91206 4.16948 1.22146 1.27099e-005 -4.69947e-007 3 -8.02907 -4.95147 -0.697689 171.545 3.34211 4.20021 180 7.01577e-015 179.063 179.064 13.3374 179.49 1.58948e-006 3.62527e-006 0.108548 -18.1386 69.5179 20.7904 8.13663 25.2348 -3.48494 -172.417 2.14538 -2.36353 4.5067e-006 -1.99009e-005 -0.923982 -1.48055 -13.6072 0.445762 3.15628e-006 -4.48877e-006 -0.126123 19.0086 71.214 -22.4216 -8.13666 25.2351 3.48443 
53.5756 95.9137 8.55166 -0.199245 -3.15283 0.29675 0.482313 -1.33133 0.114921 0.964353 1.34073 0.178155 0.965222 2.98566 0.162011 -6.26358 11.5721 -3.56563 3.67851 -5.48121 -4.62421 60.262 -8.96594 -5.59443 110.034 15.3163 14.2813 9.98579e-007 -1.95488e-007 -4.56648e-006 11.1676 10.7503 -1.98136 8.40228e-006 7.43062e-007 -3 8.02894 -4.95145 0.69768 -64.1069 -6.74256 4.40494 -106.912 13.8586 -9.55042 2.33172e-005 2.43301e-006 1.85192e-006 -8.9423 4.45493 1.24622 1.27099e-005 -4.69947e-007 3 -8.02907 -4.95147 -0.697689 171.545 3.31008 4.19956 180 7.01577e-015 179.063 179.068 13.3371 179.489 1.58948e-006 3.62527e-006 0.108237 -18.1295 69.5176 20.7911 8.13663 25.2348 -3.48494 -172.418 2.10175 -2.36441 4.5067e-006 -1.99009e-005 -0.923939 -1.4799 -13.5951 0.446605 3.15628e-006 -4.48877e-006 -0.12522 19.0019 71.2135 -22.4199 -8.13666 25.2351 3.48443 
53.5679 95.9105 8.54341 -0.196505 -3.18507 0.284403 0.480405 -1.32039 0.117175 0.960224 1.36263 0.182703 0.961545 3.00757 0.166611 -6.2467 11.5272 -3.55409 3.66999 -5.48048 -4.60735 60.2741 -8.95092 -5.58549 110.011 15.1852 14.0782 9.98579e-007 -1.95488e-007 -4.56648e-006 11.3234 11.1079 -2.03837 8.40228e-006 7.43062e-007 -3 8.02894 -4.95145 0.69768 -64.0935 -6.73784 4.40174 -106.931 13.7634 -9.48897 2.33172e-005 2.43301e-006 1.85192e-006 -8.97275 4.73962 1.27096 1.27099e-005 -4.69947e-007 3 -8.02907 -4.95147 -0.697689 171.546 3.27797 4.19884 180 7.01577e-015 179.063 179.072 13.337 179.488 1.58948e-006 3.62527e-006 0.10793 -18.1205 69.5174 20.7918 8.13663 25.2348 -3.48494 -172.42 2.05794 -2.36532 4.5067e-006 -1.99009e-005 -0.923894 -1.47924 -13.583 0.447451 3.15628e-006 -4.48877e-006 -0.124314 18.9953 71.213 -22.4183 -8.13666 25.2351 3.48443 
53.5678 95.9111 8.54607 -0.193796 -3.21702 0.272234 0.478515 -1.30949 0.119402 0.956129 1.38444 0.187201 0.957898 3.02937 0.171162 -6.22997 11.4821 -3.5426 3.66154 -5.47963 -4.59057 60.2859 -8.936 -5.57661 109.987 15.0535 13.875 9.98579e-007 -1.95488e-007 -4.56648e-006 11.4796 11.4673 -2.09589 8.40228e-006 7.43062e-007 -3 8.02894 -4.95145 0.69768 -64.0801 -6.73296 4.39847 -106.951 13.6677 -9.42701 2.33172e-005 2.43301e-006 1.85192e-006 -9.00353 5.02582 1.29588 1.27099e-005 -4.69947e-007 3 -8.02907 -4.95147 -0.697689 171.546 3.24601 4.19825 180 7.01577e-015 179.063 179.076 13.3367 179.487 1.58948e-006 3.62527e-006 0.107613 -18.1114 69.517 20.7924 8.13663 25.2348 -3.48494 -172.421 2.01448 -2.36619 4.5067e-006 -1.99009e-005 -0.923851 -1.47858 -13.5709 0.448289 3.15628e-006 -4.48877e-006 -0.123414 18.9885 71.2124 -22.4166 -8.13666 25.2351 3.48443 
53.5765 95.9208 8.57361 -0.191142 -3.24826 0.260513 0.476668 -1.29872 0.121567 0.952126 1.40601 0.191578 0.954329 3.05094 0.175591 -6.21363 11.4364 -3.53124 3.65327 -5.47852 -4.57395 60.2971 -8.92134 -5.56788 109.964 14.9208 13.6712 9.98579e-007 -1.95488e-007 -4.56648e-006 11.6357 11.8311 -2.15437 8.40228e-006 7.43062e-007 -3 8.02894 -4.95145 0.69768 -64.0671 -6.7277 4.39499 -106.97 13.5708 -9.36366 2.33172e-005 2.43301e-006 1.85192e-006 -9.0348 5.31577 1.32114 1.27099e-005 -4.69947e-007 3 -8.02907 -4.95147 -0.697689 171.547 3.21445 4.19803 180 7.01577e-015 179.063 179.079 13.3356 179.486 1.58948e-006 3.62527e-006 0.107275 -18.1022 69.5163 20.7927 8.13663 25.2348 -3.48494 -172.423 1.97191 -2.36699 4.5067e-006 -1.99009e-005 -0.923814 -1.4779 -13.5586 0.44911 3.15628e-006 -4.48877e-006 -0.122523 18.9817 71.2116 -22.4146 -8.13666 25.2351 3.48443 
53.5656 95.9181 8.56916 -0.188566 -3.27837 0.249507 0.474893 -1.28814 0.123629 0.948272 1.4272 0.19576 0.950888 3.07213 0.179823 -6.19792 11.3899 -3.52006 3.6453 -5.47698 -4.55762 60.3072 -8.90708 -5.55937 109.942 14.7867 13.4663 9.98579e-007 -1.95488e-007 -4.56648e-006 11.7912 12.202 -2.21424 8.40228e-006 7.43062e-007 -3 8.02894 -4.95145 0.69768 -64.0545 -6.72184 4.3912 -106.99 13.4719 -9.29807 2.33172e-005 2.43301e-006 1.85192e-006 -9.0667 5.61174 1.34692 1.27099e-005 -4.69947e-007 3 -8.02907 -4.95147 -0.697689 171.546 3.18352 4.19836 180 7.01577e-015 179.063 179.082 13.3336 179.486 1.58948e-006 3.62527e-006 0.106899 -18.0929 69.5149 20.7923 8.13663 25.2348 -3.48494 -172.424 1.93075 -2.36767 4.5067e-006 -1.99009e-005 -0.923785 -1.47718 -13.5461 0.449902 3.15628e-006 -4.48877e-006 -0.121651 18.9746 71.2103 -22.4121 -8.13666 25.2351 3.48443 
53.5672 95.9242 8.57306 -0.18609 -3.30692 0.239486 0.473216 -1.27781 0.125552 0.944626 1.44785 0.199674 0.947625 3.09279 0.183785 -6.18308 11.3423 -3.50915 3.63774 -5.47484 -4.54167 60.3159 -8.89338 -5.55118 109.92 14.6507 13.2596 9.98579e-007 -1.95488e-007 -4.56648e-006 11.9457 12.5827 -2.27598 8.40228e-006 7.43062e-007 -3 8.02894 -4.95145 0.69768 -64.0427 -6.71515 4.38697 -107.009 13.3703 -9.22936 2.33172e-005 2.43301e-006 1.85192e-006 -9.0994 5.91598 1.3734 1.27099e-005 -4.69947e-007 3 -8.02907 -4.95147 -0.697689 171.546 3.15345 4.19947 180 7.01577e-015 179.063 179.083 13.3301 179.486 1.58948e-006 3.62527e-006 0.106475 -18.0834 69.5127 20.7912 8.13663 25.2348 -3.48494 -172.426 1.89155 -2.36817 4.5067e-006 -1.99009e-005 -0.923767 -1.47642 -13.5334 0.450654 3.15628e-006 -4.48877e-006 -0.120802 18.9672 71.2085 -22.4091 -8.13666 25.2351 3.48443 
53.5674 95.9256 8.57787 -0.183738 -3.33349 0.230718 0.471665 -1.26783 0.127297 0.941245 1.46784 0.203246 0.94459 3.11277 0.187402 -6.16936 11.2931 -3.49856 3.63068 -5.47196 -4.52621 60.3227 -8.88039 -5.5434 109.901 14.5127 13.0508 9.98579e-007 -1.95488e-007 -4.56648e-006 12.0987 12.9758 -2.34006 8.40228e-006 7.43062e-007 -3 8.02894 -4.95145 0.69768 -64.0318 -6.70741 4.38219 -107.028 13.2653 -9.15667 2.33172e-005 2.43301e-006 1.85192e-006 -9.13307 6.23076 1.40076 1.27099e-005 -4.69947e-007 3 -8.02907 -4.95147 -0.697689 171.545 3.12448 4.20157 180 7.01577e-015 179.063 179.083 13.3248 179.486 1.58948e-006 3.62527e-006 0.105986 -18.0737 69.5094 20.7891 8.13663 25.2348 -3.48494 -172.428 1.85482 -2.36847 4.5067e-006 -1.99009e-005 -0.923765 -1.47561 -13.5203 0.451356 3.15628e-006 -4.48877e-006 -0.119984 18.9594 71.2058 -22.4054 -8.13666 25.2351 3.48443 
